{"accessors" : [{"bufferView" : 0, "byteOffset" : 0, "componentType" : 5123, "count" : 34452, "type" : "SCALAR", "max" : [26151], "min" : [0]}, {"bufferView" : 1, "byteOffset" : 0, "componentType" : 5126, "count" : 26152, "type" : "VEC3", "max" : [0.2986903786659241, 0.15010197460651398, -0.3023141920566559], "min" : [-0.30018240213394165, -0.18752089142799377, -1.5338373184204102], "name" : "POSITION"}, {"bufferView" : 1, "byteOffset" : 12, "componentType" : 5126, "count" : 26152, "type" : "VEC3", "max" : [0.9999039173126221, 0.9999837875366211, 0.9982731342315674], "min" : [-0.9997490644454956, -0.9999967813491821, -0.9755074977874756], "name" : "NORMAL"}, {"bufferView" : 1, "byteOffset" : 24, "componentType" : 5126, "count" : 26152, "type" : "VEC2", "max" : [1, 0.9612267017364502], "min" : [0, 0], "name" : "TEXCOORD_0"}], "asset" : {"generator" : "Aspose.3D 23.7.0", "version" : "2.0"}, "buffers" : [{"uri" : "data:application/octet-stream;base64,", "byteLength" : 1171376}], "bufferViews" : [{"buffer" : 0, "byteOffset" : 0, "byteLength" : 68904, "target" : 34963}, {"buffer" : 0, "byteOffset" : 68908, "byteLength" : 1102464, "byteStride" : 32, "target" : 34962}], "images" : [{"uri" : "data:image/png;base64,"}], "materials" : [{"name" : ".HG_Dress_1", "pbrMetallicRoughness" : {"baseColorFactor" : [1, 1, 1, 1], "baseColorTexture" : {"index" : 0, "texCoord" : 0}, "metallicFactor" : 0, "roughnessFactor" : 1}, "emissiveFactor" : [0, 0, 0], "alphaMode" : "OPAQUE", "doubleSided" : true}], "meshes" : [{"primitives" : [{"attributes" : {"POSITION" : 1, "NORMAL" : 2, "TEXCOORD_0" : 3}, "indices" : 0, "material" : 0, "mode" : 4}]}], "nodes" : [{"mesh" : 0, "name" : "mesh_0"}, {"children" : [0], "matrix" : [1, 0, 0, 0, 0, -3.029462689596585E-07, 0.9999999657714298, 0, 0, -0.9999999657714298, -3.029462689596585E-07, 0, 0, -0.0009553711861371994, 0, 1], "name" : "HG_Dress.001_0"}, {"children" : [1], "matrix" : [1, 0, 0, 0, 0, -3.029462689596585E-07, 0.9999999657714298, 0, 0, -0.9999999657714298, -3.029462689596585E-07, 0, 0, 0, 0, 1], "name" : "GLTF_SceneRootNode"}, {"children" : [2], "name" : "root"}, {"children" : [3], "matrix" : [1, 0, 0, 0, 0, -3.029462689596585E-07, -0.9999999657714298, 0, 0, 0.9999999657714298, -3.029462689596585E-07, 0, 0, 0, 0, 1], "name" : "Sketchfab_model"}], "samplers" : [{"magFilter" : 9729, "minFilter" : 9987, "wrapS" : 10497, "wrapT" : 10497}], "scene" : 0, "scenes" : [{"nodes" : [4]}], "textures" : [{"sampler" : 0, "source" : 0, "name" : ""}]}